<?xml version="1.0" encoding="UTF-8" standalone="no"?>
<svg
   xmlns:dc="http://purl.org/dc/elements/1.1/"
   xmlns:cc="http://creativecommons.org/ns#"
   xmlns:rdf="http://www.w3.org/1999/02/22-rdf-syntax-ns#"
   xmlns:svg="http://www.w3.org/2000/svg"
   xmlns="http://www.w3.org/2000/svg"
   viewBox="0 0 348.70667 114.61333"
   height="114.61333"
   width="348.70667"
   xml:space="preserve"
   id="svg2"
   version="1.1"><metadata
     id="metadata8"><rdf:RDF><cc:Work
         rdf:about=""><dc:format>image/svg+xml</dc:format><dc:type
           rdf:resource="http://purl.org/dc/dcmitype/StillImage" /></cc:Work></rdf:RDF></metadata><defs
     id="defs6" /><g
     transform="matrix(1.3333333,0,0,-1.3333333,0,114.61333)"
     id="g10"><g
       transform="scale(0.1)"
       id="g12"><path
         id="path14"
         style="fill:#ffffff;fill-opacity:1;fill-rule:nonzero;stroke:none"
         d="M 389.535,0 C 217.258,102.453 0,251.352 0,514.27 v 277.617 c 79.4688,30.054 202.254,67.683 389.523,67.683 189.422,0 319.43,-40.961 389.54,-67.683 V 514.27 C 779.063,249.129 553.387,96.3398 389.535,0" /><path
         id="path16"
         style="fill:#263e7e;fill-opacity:1;fill-rule:nonzero;stroke:none"
         d="m 246.137,131.414 c 45.984,-35.8906 95.23,-67.6445 143.418,-96.4335 v 0 0 c 0.437,43.3242 -0.957,68.8555 28.367,99.5315 11.871,12.414 24.098,25.054 35.148,36.508 8.325,8.625 15.067,15.05 19,15.05 2.813,0 4.067,-1.472 4.067,-5.238 0,-3.863 1.718,-18.07 10.531,-35.074 10.953,-21.133 27.145,-23.86 32.324,-25.051 125.543,94.5 230.531,218.195 230.531,394.176 0,96.621 0,256.469 0,256.469 -30.953,10.527 -158.148,59.304 -360,59.304 -201.855,0 -329.0425,-48.777 -359.9957,-59.304 0,0 0,-159.848 0,-256.469 0,-77.348 20.2891,-144.598 53.6915,-203.703 3.332,35.629 27.4292,52.515 27.4292,87.519 0,24.43 -6.914,39.848 -6.914,60.297 0,36.969 49.914,113.031 75.805,144.024 0.758,0.906 2.441,3.074 4.52,3.074 1.859,0 3.265,-1.293 4.398,-3.035 2.637,-4.039 3.77,-6.168 6.59,-6.168 2.84,0 3.933,1.586 3.933,4.101 0,6.449 -7.445,17.188 -7.445,59.211 0,29.383 6.824,35.613 25.098,53.492 3.336,3.27 13.555,13.09 23.305,13.09 10.843,0 16.218,-6.418 22.898,-13.207 11.293,-11.484 27.043,-31.828 29.582,-35.047 0.719,-0.906 1.363,-1.738 2.906,-1.738 5.219,0 9.578,1.574 32.258,1.574 41.211,0 103.313,-6.472 135.227,-16.918 16.437,-5.379 19.863,-9.086 24.214,-9.086 2.129,0 2.317,1.391 2.317,2.5 0,2.082 -4.328,5.418 -4.328,8.25 0,1.875 1.523,3.258 3.031,4.071 23.801,12.777 44.129,22.445 62.723,22.445 10.828,0 16.168,-9.371 20.726,-18.645 3.555,-7.222 7.367,-16.929 7.367,-26.886 0,-25.207 -9.629,-40.575 -17.304,-51.348 3.675,-3.773 8.879,-9.484 12.054,-13.273 5.649,-6.747 12.434,-15.555 12.434,-24.707 0,-3.954 -1.93,-10.165 -3.031,-15.086 -0.492,-2.211 -2.434,-6.629 -6.274,-6.555 -3.457,0.066 -4.359,3.851 -4.492,7.195 -0.027,0.696 0,2.207 0,2.539 0,7.258 -2.008,17.102 -8.75,23.992 -7.746,7.926 -14.844,13.68 -23.816,13.68 -0.532,0 -2.438,0.004 -3.071,0.004 -14.73,0 -21.429,-6.437 -25.472,-10.379 -4.422,-4.308 -7.86,-10.066 -7.86,-17.828 0,-4.445 3.028,-9.715 7.059,-17.777 2.383,-4.762 8.488,-16.106 11.824,-21.942 2.906,-5.086 6.641,-6.875 10.82,-6.875 10.254,0 19.196,1.422 19.196,4.504 0,0.844 -0.457,1.555 -1.856,1.555 -0.593,0 -2.011,-0.176 -3.273,-0.176 -13.402,0 -20.57,17.051 -27.285,32.524 5.121,4.988 10.918,10.109 21.429,10.109 13.344,0 22.106,-8.961 22.106,-20.621 0,-5.797 -1.785,-10.633 -2.832,-12.805 -0.527,-1.101 -0.817,-1.777 -0.817,-2.41 0,-1.82 2.313,-2.188 5.957,-3.031 1.293,-0.297 3.774,-0.883 5.282,-1.321 3.926,-1.14 8.093,-4.523 9.855,-9.253 1.176,-3.149 3.852,-10.368 4.438,-12.118 2.207,-6.601 5.769,-16.203 5.769,-27.734 0,-11.719 -0.797,-15.266 -4.019,-27.172 -4.121,-15.219 -5.934,-21.008 -6.61,-29.363 1.414,-2.629 1.539,-3.36 2.18,-4.883 2.301,-4.844 5.297,-13.695 5.297,-23.27 0,-2.562 0,-7.597 0,-7.882 0,-15.266 -6.086,-27.137 -12.68,-36.036 -5.133,-6.925 -12.48,-16.679 -16.691,-22.089 -2.738,-3.278 -6.418,-5.645 -10.528,-5.645 -1.96,0 -4.273,0.656 -6.585,1.234 -2.563,0.645 -8.028,2.028 -10.352,2.618 -8.969,2.261 -12.289,8.125 -15.191,16.015 -0.434,1.184 -1.79,4.539 -2.207,5.606 -2.145,5.5 -3.356,9.015 -6.766,9.015 -2.543,0 -4.981,-1.66 -7.516,-5.472 -8.961,-13.485 -13.836,-18.383 -29.605,-22.266 -5.516,-1.355 -16.703,-3.687 -22.965,-5.078 -9.453,-2.102 -26.324,-6.527 -35.824,-6.527 -2.02,0 -4.145,0.125 -6.321,0.367 -12.953,1.82 -22.148,2.68 -38.285,21.937 -22.183,26.481 -19.894,30.211 -21.226,65.965 -0.149,3.996 -1.457,8.977 -5.602,8.977 -3.723,0 -5.332,-7.59 -6.687,-18.336 -1.594,-12.613 -4.504,-25.723 -10.707,-25.723 -4.344,0 -7.258,0.664 -13.938,2.84 -8.066,2.625 -28.152,9.414 -38.719,12.902 -14.379,4.754 -28.152,8.524 -33.695,21.27 -2.609,6 -7.426,17.156 -9.875,22.957 -1.723,4.074 -2.98,6.207 -5.664,6.207 -3.824,0 -4.676,-4.539 -5.102,-8.125 -0.488,-4.059 -1.511,-13.426 -2.019,-19.266 -2.16,-24.914 -7.141,-35.511 -17.684,-49.402 -4.832,-6.367 -9.425,-12.856 -14.769,-19.941 -11.047,-14.649 -17.703,-29.641 -17.356,-58.024 0.024,-1.844 -0.113,-12.418 0,-17.293 0.989,-42.238 11.7,-62.941 82.899,-119.664 z m 255.008,129.43 c -3.34,-0.824 -9.887,-2.442 -39.059,-2.442 -44.195,0 -51.691,10.856 -51.691,19.473 0,14.379 63.375,24.523 88.351,24.523 23.922,0 34.496,-7.683 34.496,-13.539 0,-6.785 -10.789,-22.875 -32.097,-28.015 z m -85.571,273.035 c 0,10.18 -11.461,25.094 -31.433,25.094 -17.766,0 -31.332,-13.407 -34.883,-23.883 4.258,-8.238 8.359,-16.934 25.394,-22.094 2.254,-0.683 4.512,-0.742 4.512,-2.664 0,-2.73 -2.883,-4.094 -8.949,-4.094 -19.309,0 -30.781,7.887 -35.879,14.547 -4.988,-0.695 -10.773,-2.633 -17.992,-2.894 -5.899,-0.215 -8.598,3.73 -8.598,9.004 0,3.398 1.008,7.136 3.027,11.289 1.118,2.296 2.305,4.675 3.172,6.367 3.004,5.867 7.582,18.937 25.203,28.976 2.051,1.168 7.383,4.395 10.11,6 9.972,5.864 17.519,7.25 29.383,7.25 0.91,0 7.504,0 8.695,0 14.219,0 21.492,-3.996 27.766,-9.269 12.734,-10.719 19.742,-16.551 19.742,-24.5 0,-8.836 -0.473,-15.602 -7.531,-24.918 -6.067,-7.949 -14.942,-13.235 -20.672,-13.235 -1.621,0 -2.09,0.875 -2.09,1.786 0,1.211 1.34,1.812 2.722,2.933 4.7,3.809 6.817,10.555 8.301,14.305 z m -177.855,56.976 c 4.39,0 7.722,2.907 14.34,10.219 14.804,16.367 29.101,18.559 29.101,25.551 0,3.113 -1.996,6.168 -4.082,9.422 -15.777,24.652 -22.512,37.976 -31.914,55.867 -3.406,6.481 -7.84,10.914 -11.219,10.914 -5.461,0 -11.218,-6.367 -14.554,-11.824 -4.707,-7.699 -9.403,-16.375 -9.403,-24.262 0,-11.926 2.93,-33.676 7.883,-47.609 5.352,-15.051 13.117,-28.278 19.848,-28.278 z m 286.183,32.418 c -0.707,0.411 -3.226,1.321 -3.226,3.821 0,2.883 2.09,5.867 6.32,11.543 9.758,13.082 23.16,29.113 28.07,29.113 2.399,0 3.891,-1.645 6.852,-7.254 1.762,-3.336 3.27,-8.891 3.27,-14.172 0,-17.39 -5.993,-29.605 -15.286,-43.41 -4.629,4.445 -13.242,13.059 -26,20.359 z M 506.723,359.516 c 0,5.894 4.847,15.043 4.847,23.214 0,9.723 -11.918,12.813 -21.172,14.094 -19.472,2.699 -25.972,1.817 -25.972,6.114 0,2.972 2.621,6.074 6.168,11.171 5.238,7.528 17.711,10.371 24.351,11.282 8.75,1.203 18.434,2.375 30.047,2.375 13,0 24.051,-1.946 29.133,-2.828 11.934,-2.079 13.793,-7.071 13.793,-12.672 0,-1.2 0,-4.196 0,-5.602 0,-5.644 -4.621,-8.543 -12.953,-10.359 -2.082,-0.457 -5,-0.985 -6.402,-1.274 -6.04,-1.254 -13.512,-2.453 -16.165,-10.078 -5.691,-16.367 -15.589,-29.199 -22.914,-28.875 -1.347,0.059 -2.761,1.078 -2.761,3.438" /><path
         id="path18"
         style="fill:#9dc0e8;fill-opacity:1;fill-rule:nonzero;stroke:none"
         d="m 470.184,143.391 c 1.023,11.179 5.953,29.832 5.953,37.441 v 0 c 0,3.766 -1.254,5.238 -4.067,5.238 -3.933,0 -10.675,-6.425 -19,-15.05 -11.05,-11.454 -23.277,-24.094 -35.148,-36.508 -29.324,-30.676 -27.93,-56.2073 -28.367,-99.5315 v 0 c 32.597,19.6484 62.394,38.5312 84.465,53.582 -3.274,18.0505 -6.012,30.9965 -3.836,54.8285 z M 163.238,251.082 c -0.113,4.875 0.024,15.445 0,17.289 -0.347,28.383 6.309,43.375 17.356,58.024 5.344,7.085 9.937,13.574 14.769,19.941 10.543,13.891 15.524,24.488 17.684,49.402 0.508,5.84 1.531,15.207 2.019,19.266 0.426,3.586 1.278,8.125 5.102,8.125 2.684,0 3.941,-2.133 5.664,-6.207 2.449,-5.801 7.266,-16.957 9.875,-22.957 5.543,-12.746 19.316,-16.516 33.695,-21.27 10.567,-3.488 30.653,-10.277 38.719,-12.902 6.68,-2.176 9.594,-2.84 13.938,-2.84 6.203,0 9.113,13.11 10.707,25.723 1.355,10.746 2.964,18.336 6.687,18.336 4.145,0 5.453,-4.981 5.602,-8.977 1.332,-35.754 -0.957,-39.484 21.226,-65.965 16.137,-19.257 25.332,-20.117 38.285,-21.937 -4.808,1.437 -10.988,7 -10.988,18.703 0,2.144 0,11.445 0,12.859 0,6.422 0.77,12.969 3.949,20.364 1.5,3.484 3.258,9.769 4.914,13.617 2.821,6.558 1.473,8.215 1.473,12.836 0,4.883 -1.609,9.718 -5.465,21.418 -1.98,6.004 -4.664,14.75 -7.238,21.929 -8.043,22.434 -11.293,27.719 -38.117,31.274 -8.614,1.137 -46.25,6.472 -54.121,7.594 -30.106,4.269 -53.676,5.699 -65.946,25.871 -14.656,24.09 -13.179,53.461 -27.269,53.461 -6.688,0 -10.231,-7.481 -10.231,-18.391 0,-11.461 4.328,-30.004 4.328,-62.27 0,-27.902 -2.605,-35.675 -18.863,-56.218 -4.215,-5.328 -9.89,-13.168 -13.527,-17.731 -12.098,-15.187 -17.457,-23.746 -16.723,-41.441 1.903,-45.813 9.16,-79.469 12.496,-96.926 z m 323.157,193.965 c 1.179,-2.945 2.168,-6.293 2.168,-8.789 0,-5.625 -1.395,-7.344 -4.489,-10.66 -1.851,-1.653 -3.91,-3.391 -5.793,-5.145 -3.082,-1.613 -5.836,-3.683 -7.687,-6.344 -3.547,-5.097 -6.168,-8.199 -6.168,-11.171 0,-0.926 0.304,-1.614 0.972,-2.145 -4.3,3.184 -6.019,8.105 -6.019,12.488 0,3.918 1.281,5.992 1.281,9.684 0,3.121 -0.879,6.18 -1.406,7.953 -6.008,20.094 -16.121,44 -22.352,60.254 -6.351,16.566 -11.343,25.644 -18.519,25.644 -3.992,0 -7.539,-1.961 -11.735,-1.961 5.735,0.004 14.602,5.29 20.665,13.235 7.058,9.316 7.531,16.082 7.531,24.918 0,3.742 -1.555,7.015 -4.528,10.551 9.094,-9.266 14.911,-21.055 21.071,-34.118 13.496,-28.613 25.187,-59.945 35.008,-84.394 z m 94.347,59.766 v 0 c 1.176,-3.149 3.852,-10.368 4.438,-12.118 2.207,-6.601 5.769,-16.203 5.769,-27.734 0,-11.719 -0.797,-15.266 -4.019,-27.172 -4.121,-15.219 -5.934,-21.008 -6.61,-29.363 -1.148,2.363 -22.804,39.738 -24.461,42.777 -1.656,3.039 -3.035,5.996 -3.035,9.508 0,3.816 1.633,6.113 6.254,9.019 2.774,1.747 6.363,3.805 8.793,5.047 11.152,5.715 13.824,12.774 13.836,20.325 0.004,3.171 -0.461,6.429 -0.965,9.711" /><path
         id="path20"
         style="fill:#ffffff;fill-opacity:1;fill-rule:nonzero;stroke:none"
         d="m 1844.15,297.816 c 0,3.102 -0.29,7.34 -1.13,10.442 -3.68,15.816 -17.23,28.801 -35.86,28.801 -25.69,0 -40.94,-22.586 -40.94,-52.797 0,-27.66 13.55,-50.532 40.37,-50.532 16.66,0 31.9,11.004 36.43,29.637 0.84,3.391 1.13,6.778 1.13,10.731 z m 24.84,119.422 V 252.074 c 0,-12.14 0.28,-25.972 1.13,-35.289 h -22.3 l -1.14,23.723 h -0.56 c -7.63,-15.254 -24.28,-26.82 -46.58,-26.82 -33.04,0 -58.45,27.945 -58.45,69.449 -0.28,45.453 27.95,73.402 61.27,73.402 20.89,0 35.01,-9.879 41.22,-20.894 h 0.57 v 81.593 z m -274.7,-100.789 c 0,14.117 -0.28,25.696 -1.13,36.989 h 22.03 l 1.41,-22.583 h 0.56 c 6.78,12.981 22.58,25.684 45.18,25.684 18.91,0 48.27,-11.293 48.27,-58.16 v -81.594 h -24.84 v 78.77 c 0,22.019 -8.19,40.375 -31.62,40.375 -16.38,0 -29.09,-11.578 -33.31,-25.407 -1.14,-3.101 -1.7,-7.339 -1.7,-11.582 v -82.156 h -24.85 z m -54.75,-18.07 c 0.28,15.809 -6.5,40.379 -34.45,40.379 -25.12,0 -36.14,-23.16 -38.11,-40.379 z m -72.84,-17.781 c 0.57,-33.598 22.02,-47.43 46.87,-47.43 17.78,0 28.51,3.102 37.83,7.055 l 4.24,-17.785 c -8.76,-3.961 -23.72,-8.477 -45.46,-8.477 -42.08,0 -67.2,27.672 -67.2,68.887 0,41.226 24.29,73.691 64.09,73.691 44.61,0 56.47,-39.238 56.47,-64.375 0,-5.074 -0.56,-9.027 -0.85,-11.566 z m -103.33,30.211 c 0,16.082 -0.28,29.925 -1.13,42.629 h 21.73 l 0.85,-26.825 h 1.13 c 6.21,18.348 21.18,29.926 37.84,29.926 2.82,0 4.8,-0.277 7.05,-0.851 v -23.434 c -2.54,0.574 -5.08,0.851 -8.47,0.851 -17.5,0 -29.92,-13.265 -33.31,-31.898 -0.56,-3.391 -1.14,-7.34 -1.14,-11.578 v -72.844 h -24.55 z m -156.68,106.429 h 24.85 V 331.98 h 0.56 c 3.95,7.051 10.17,13.266 17.8,17.504 7.34,4.231 16.09,7.055 25.41,7.055 18.34,0 47.7,-11.293 47.7,-58.445 v -81.309 h -24.83 v 78.492 c 0,22.024 -8.19,40.653 -31.63,40.653 -16.09,0 -28.8,-11.289 -33.31,-24.844 -1.41,-3.391 -1.7,-7.055 -1.7,-11.856 v -82.445 h -24.85 z m -54.76,-118.859 c 0.28,15.809 -6.5,40.379 -34.44,40.379 -25.13,0 -36.14,-23.16 -38.12,-40.379 z m -72.83,-17.781 c 0.56,-33.598 22.02,-47.43 46.85,-47.43 17.79,0 28.52,3.102 37.84,7.055 l 4.24,-17.785 c -8.75,-3.961 -23.72,-8.477 -45.46,-8.477 -42.07,0 -67.2,27.672 -67.2,68.887 0,41.226 24.29,73.691 64.09,73.691 44.62,0 56.47,-39.238 56.47,-64.375 0,-5.074 -0.56,-9.027 -0.85,-11.566 z m -142.573,-45.18 c 4.805,-0.848 11.868,-1.125 20.61,-1.125 25.41,0 48.843,9.316 48.843,36.988 0,25.973 -22.296,36.703 -49.121,36.703 h -20.332 z m 0,91.195 h 22.309 c 25.973,0 41.214,13.559 41.214,31.903 0,22.308 -16.929,31.058 -41.777,31.058 -11.289,0 -17.793,-0.847 -21.746,-1.699 z m -24.558,77.918 c 10.73,2.266 27.672,3.965 44.89,3.965 24.563,0 40.379,-4.238 52.231,-13.844 9.88,-7.339 15.81,-18.632 15.81,-33.597 0,-18.344 -12.14,-34.442 -32.185,-41.782 v -0.562 c 18.065,-4.523 39.245,-19.481 39.245,-47.715 0,-16.383 -6.5,-28.801 -16.09,-38.113 -13.27,-12.145 -34.725,-17.785 -65.784,-17.785 -16.945,0 -29.926,1.129 -38.117,2.254 z M 1913.95,734.809 c -3.63,1.281 -17.59,5.796 -30.37,5.796 -27.75,0 -38.85,-15.066 -38.85,-28.359 0,-17.379 12.91,-25.422 27.8,-29.168 l 23.68,-6.203 c 33.34,-8.859 70.25,-23.02 70.25,-72.434 0,-45.328 -29.14,-75.812 -93.56,-75.812 -24.93,0 -50.83,2.726 -81.27,13.293 v 63.043 h 42.82 v -30.777 c 6.81,-1.872 26.24,-6.708 42.65,-6.708 25.3,0 37.56,10.551 37.56,28.614 0,14.941 -8.45,25.754 -38.88,33.929 l -20.37,5.614 c -46.62,12.609 -62.48,35.035 -62.48,71.843 0,37.829 25.25,67.883 89.35,67.883 27.52,0 55.04,-4.773 74.47,-12.609 v -56.91 h -42.8 z m 308.66,-126.434 c -38.85,0 -51.11,-8.18 -51.11,-23.516 0,-10.562 7.49,-21.468 26.24,-21.468 19.08,0 38.17,14.968 38.17,44.984 z m 13.98,37.832 c 0,24.613 -11.96,34.074 -36.05,34.074 -15.37,0 -26.41,-3.98 -29.56,-5.109 v -23.856 h -38.68 v 45.325 c 6.39,3.621 35.01,18.406 67.65,18.406 49.64,0 81.6,-20.199 81.6,-70.133 0,-29.305 0,-77.434 0,-77.434 h 18.42 v -34.761 h -57.71 l -1.39,24.265 h -0.69 c -3.54,-4.972 -16.55,-28.355 -56.76,-28.355 -40.21,0 -59.64,23.855 -59.64,51.801 0,33.902 26.02,57.23 91.39,57.23 2.84,0 18.43,0 21.42,0 z m -226.56,102.918 h 47.71 v -38.172 h 47.71 v -34.762 h -47.71 v -79.402 c 0,-23.898 8.36,-31.355 28.13,-31.355 7.4,0 17.53,1.976 21.25,2.718 v -33.851 c -3.91,-1.176 -21.25,-5.672 -39.26,-5.672 -35.1,0 -57.83,18.871 -57.83,50.226 v 97.336 h -24.19 v 34.762 h 24.19 z m 321.52,0 h 47.71 v -38.172 h 47.71 v -34.762 h -47.71 v -79.402 c 0,-23.898 8.36,-31.355 28.13,-31.355 7.4,0 17.53,1.976 21.24,2.718 v -33.851 c -3.91,-1.176 -21.24,-5.672 -39.25,-5.672 -35.1,0 -57.83,18.871 -57.83,50.226 v 97.336 h -24.2 v 34.762 h 24.2 z M 1570.9,676.191 h -23.17 v 34.762 h 65.46 l 1.3,-23.324 h 0.68 c 3.16,4.93 18.7,27.418 54.77,27.418 45.24,0 68.97,-31.879 68.97,-71.07 V 567.48 h 20.45 v -34.761 h -87.58 v 34.761 h 19.42 v 68.266 c 0,24.856 -13.78,38.402 -36.42,38.402 -20.44,0 -36.17,-11.48 -36.17,-38.402 V 567.48 h 20.45 v -34.761 h -87.59 v 34.761 h 19.43 z m -232.37,0 h -23.17 v 34.762 h 65.46 l 1.3,-23.324 h 0.68 c 3.16,4.93 18.7,27.418 54.77,27.418 45.24,0 68.97,-31.879 68.97,-71.07 V 567.48 h 20.45 v -34.761 h -87.58 v 34.761 h 19.42 v 68.266 c 0,24.856 -13.78,38.402 -36.42,38.402 -20.44,0 -36.17,-11.48 -36.17,-38.402 V 567.48 h 20.45 v -34.761 h -87.59 v 34.761 h 19.43 z m 1224.96,-32.375 c 0,24.536 -13.98,38.512 -36.13,38.512 -21.81,0 -34.42,-14.312 -36.46,-38.512 z m -72.25,-32.714 c 1.36,-28.289 23.17,-45.668 56.57,-45.668 29.4,0 47.44,8.129 55.21,11.277 v -36.836 c -7.26,-2.906 -27.13,-11.246 -65.78,-11.246 -68.84,0 -97.81,42.941 -97.81,92.351 0,55.555 33.74,94.067 89.64,94.067 61.34,0 86.22,-46.352 86.22,-103.945 z m -1248.73,32.714 c 0,24.536 -13.98,38.512 -36.13,38.512 -21.81,0 -34.42,-14.312 -36.46,-38.512 z m -72.25,-32.714 c 1.36,-28.289 23.17,-45.668 56.57,-45.668 29.4,0 47.44,8.129 55.21,11.277 v -36.836 c -7.26,-2.906 -27.13,-11.246 -65.77,-11.246 -68.85,0 -97.81,42.941 -97.81,92.351 0,55.555 33.74,94.067 89.63,94.067 61.34,0 86.22,-46.352 86.22,-103.945 z m -153.63,48.39 c 24.88,0 41.12,14.301 41.12,38.5 0,21.965 -14.19,38.524 -41.8,38.524 h -30.446 v -77.024 z m -80.88,77.024 h -23.516 v 34.761 h 109.526 c 57.59,0 87.67,-30.25 87.67,-73.285 0,-51.101 -40.3,-73.262 -87.67,-73.262 h -36.256 v -57.25 h 23.516 v -34.761 h -96.786 v 34.761 h 23.516 v 169.036" /></g></g></svg>